<?xml version="1.0" encoding="iso-8859-1"?>
<!-- Generator: Adobe Illustrator 16.0.0, SVG Export Plug-In . SVG Version: 6.00 Build 0)  -->
<!DOCTYPE svg PUBLIC "-//W3C//DTD SVG 1.1//EN" "http://www.w3.org/Graphics/SVG/1.1/DTD/svg11.dtd">
<svg version="1.1" id="Capa_1" xmlns="http://www.w3.org/2000/svg" xmlns:xlink="http://www.w3.org/1999/xlink" x="0px" y="0px"
	 width="434.7px" height="434.701px" viewBox="0 0 434.7 434.701" style="enable-background:new 0 0 434.7 434.701;"
	 xml:space="preserve">
<g>
	<g>
		<path d="M217.322,86.371c-72.207,0-130.949,58.743-130.949,130.949c0,72.207,58.742,130.951,130.949,130.951
			s130.951-58.743,130.951-130.95C348.273,145.115,289.529,86.371,217.322,86.371z M217.322,303.041
			c-47.266,0-85.719-38.454-85.719-85.721c0-47.266,38.453-85.719,85.719-85.719c47.266,0,85.72,38.453,85.72,85.719
			C303.041,264.586,264.587,303.041,217.322,303.041z"/>
		<path d="M82.342,87.638c2.927,2.966,6.798,4.464,10.68,4.464c3.544,0,7.096-1.249,9.943-3.772
			c15.444-13.682,32.979-24.387,52.118-31.816c7.428-2.884,11.305-11.068,8.831-18.642l-4.736-14.498
			c-1.276-3.906-4.1-7.118-7.812-8.885c-3.71-1.768-7.982-1.933-11.82-0.462c-24.76,9.499-47.379,23.305-67.23,41.034
			c-3.063,2.736-4.871,6.609-5,10.715c-0.13,4.105,1.431,8.085,4.315,11.009L82.342,87.638z"/>
		<path d="M30.17,221.329c0.027,0,0.054,0,0.081,0c7.947,0,14.521-6.204,14.974-14.147c1.173-20.601,5.972-40.559,14.264-59.317
			c3.225-7.297,0.175-15.841-6.941-19.445l-13.604-6.891c-3.664-1.855-7.925-2.129-11.793-0.756
			c-3.868,1.372-7.006,4.27-8.681,8.018C7.642,153.024,1.434,178.818,0.021,205.455c-0.218,4.097,1.252,8.104,4.067,11.088
			c2.815,2.983,6.729,4.686,10.832,4.707L30.17,221.329z"/>
		<path d="M378.301,155.522c2.285,5.932,7.95,9.611,13.997,9.611c1.53,0,3.09-0.236,4.621-0.732l14.508-4.697
			c3.91-1.266,7.129-4.08,8.905-7.785c1.776-3.705,1.955-7.978,0.494-11.818c-9.429-24.788-23.177-47.45-40.861-67.356
			c-2.729-3.07-6.596-4.888-10.7-5.028c-4.123-0.142-8.089,1.409-11.021,4.286l-10.883,10.682
			c-5.688,5.584-6.018,14.642-0.747,20.622C360.258,118.788,370.919,136.356,378.301,155.522z"/>
		<path d="M227.918,45.25c20.592,1.226,40.534,6.078,59.277,14.423c1.979,0.882,4.052,1.3,6.094,1.3
			c5.476,0,10.73-3.013,13.37-8.188l6.929-13.586c1.862-3.657,2.148-7.918,0.787-11.79c-1.361-3.873-4.25-7.018-7.994-8.702
			C282.176,7.812,256.397,1.535,229.762,0.052c-4.086-0.231-8.107,1.231-11.101,4.039c-2.991,2.809-4.702,6.72-4.734,10.822
			l-0.117,15.25C213.749,38.145,219.95,44.776,227.918,45.25z"/>
		<path d="M56.676,279.981c-2.903-7.417-11.101-11.271-18.664-8.777l-14.484,4.774c-3.903,1.287-7.107,4.119-8.864,7.834
			c-1.757,3.717-1.912,7.989-0.43,11.822c9.563,24.733,23.43,47.316,41.212,67.121c2.744,3.057,6.622,4.854,10.729,4.973
			c0.145,0.004,0.289,0.006,0.434,0.006c3.951,0,7.75-1.561,10.563-4.352l10.826-10.74c5.658-5.612,5.938-14.672,0.638-20.624
			C74.912,316.61,64.161,299.102,56.676,279.981z"/>
		<path d="M430.556,216.97c-2.83-2.969-6.755-4.649-10.856-4.649h-15.25c-7.983,0-14.567,6.253-14.979,14.227
			c-1.064,20.608-5.758,40.592-13.949,59.394c-3.186,7.313-0.091,15.843,7.045,19.408l13.642,6.818
			c2.104,1.052,4.401,1.583,6.707,1.583c1.719,0,3.438-0.295,5.09-0.891c3.859-1.393,6.981-4.307,8.638-8.062
			c10.698-24.287,16.769-50.113,18.042-76.761C434.878,223.938,433.387,219.939,430.556,216.97z"/>
		<path d="M352.986,346.286c-5.629-5.646-14.688-5.901-20.626-0.584c-15.375,13.765-32.854,24.562-51.952,32.098
			c-7.409,2.923-11.243,11.128-8.729,18.687l4.812,14.472c1.298,3.899,4.138,7.097,7.856,8.844c2.017,0.947,4.195,1.423,6.377,1.423
			c1.844,0,3.691-0.34,5.446-1.023c24.707-9.628,47.254-23.553,67.014-41.389c3.05-2.752,4.837-6.635,4.945-10.741
			c0.106-4.105-1.475-8.077-4.374-10.984L352.986,346.286z"/>
		<path d="M207.638,389.444c-20.608-1.121-40.579-5.867-59.357-14.106c-7.306-3.207-15.84-0.135-19.426,6.992L122,395.95
			c-1.846,3.666-2.107,7.93-0.726,11.794c1.381,3.865,4.288,6.995,8.04,8.66c24.258,10.765,50.068,16.903,76.713,18.248
			c0.253,0.015,0.504,0.021,0.756,0.021c3.831,0,7.528-1.467,10.321-4.115c2.977-2.823,4.668-6.742,4.679-10.845l0.041-15.25
			C221.846,396.478,215.61,389.876,207.638,389.444z"/>
	</g>
</g>
<g>
</g>
<g>
</g>
<g>
</g>
<g>
</g>
<g>
</g>
<g>
</g>
<g>
</g>
<g>
</g>
<g>
</g>
<g>
</g>
<g>
</g>
<g>
</g>
<g>
</g>
<g>
</g>
<g>
</g>
</svg>
